# xmcd
#
# Track frame offsets:
#	150
#	4553
#	17425
#	33705
#	45960
#	63921
#	76661
#	87758
#	102208
#	116164
#	126793
#	142103
#	155488
#	168639
#
# Disc length: 2421 seconds
#
# Revision: 1
# Processed by: cddbd v1.5.1PL0 Copyright (c) Steve Scherf et al.
# Submitted via: audiograbber 1.81.03
#
DISCID=a609730e
DTITLE=Flintlock - Dirt Road
DYEAR=2003
DGENRE=Bluegrass
TTITLE0=Katy Hill
TTITLE1=Mighty Dark to Travel
TTITLE2=The Dirt Road
TTITLE3=If I Should Wander Back Tonight
TTITLE4=This Old House
TTITLE5=There Is a Time
TTITLE6=Uncle Pen
TTITLE7=Packing South to Burmingham
TTITLE8=Home in the Mountains
TTITLE9=Dear Old Dixie
TTITLE10=Old Time Drunkard
TTITLE11=Take Me Back To Tulsa
TTITLE12=Rank Strangers
TTITLE13=Where the Soul Never Dies
EXTD=
EXTT0=
EXTT1=
EXTT2=
EXTT3=
EXTT4=
EXTT5=
EXTT6=
EXTT7=
EXTT8=
EXTT9=
EXTT10=
EXTT11=
EXTT12=
EXTT13=
PLAYORDER=
